<svg width="24" height="24" viewBox="0 0 24 24" fill="none" xmlns="http://www.w3.org/2000/svg">
<path d="M12 2C13.1 2 14 2.9 14 4C14 5.1 13.1 6 12 6C10.9 6 10 5.1 10 4C10 2.9 10.9 2 12 2ZM21 9V7L19 5L17 7V9C17 10.1 16.1 11 15 11V13H22V11C22 9.9 21.1 9 21 9ZM7 7V9C7 9.9 6.1 11 5 11V13H12V11C10.9 11 10 10.1 10 9V7L8 5L6 7Z" fill="white"/>
<circle cx="12" cy="12" r="10" stroke="white" stroke-width="2" fill="none"/>
<path d="M9.09 9C9.3251 8.33167 9.78915 7.76811 10.4 7.40913C11.0108 7.05016 11.7289 6.91894 12.4272 7.03871C13.1255 7.15849 13.7588 7.52152 14.2151 8.06353C14.6713 8.60553 14.9211 9.29152 14.92 10C14.92 12 11.92 13 11.92 13" stroke="white" stroke-width="2" stroke-linecap="round" stroke-linejoin="round"/>
<path d="M12 17H12.01" stroke="white" stroke-width="2" stroke-linecap="round" stroke-linejoin="round"/>
</svg>